<?xml version="1.0" encoding="iso-8859-1"?>
<!-- Generator: Adobe Illustrator 16.0.0, SVG Export Plug-In . SVG Version: 6.00 Build 0)  -->
<!DOCTYPE svg PUBLIC "-//W3C//DTD SVG 1.1//EN" "http://www.w3.org/Graphics/SVG/1.1/DTD/svg11.dtd">
<svg version="1.1" id="Capa_1" xmlns="http://www.w3.org/2000/svg" xmlns:xlink="http://www.w3.org/1999/xlink" x="0px" y="0px"
	 width="579.359px" height="579.358px" viewBox="0 0 579.359 579.358" style="enable-background:new 0 0 579.359 579.358;"
	 xml:space="preserve">
<g>
	<g>
		<path d="M434.518,238.169v-93.33C434.518,64.994,369.56,0,289.679,0C209.816,0,144.84,64.994,144.84,144.839v93.33h72.421v-93.33
			c-0.003-39.96,32.476-72.421,72.418-72.421c39.924,0,72.421,32.463,72.421,72.421v93.33H434.518z"/>
		<path d="M72.419,325.887v181.051c0,39.994,32.427,72.421,72.421,72.421h289.681c39.991,0,72.418-32.427,72.418-72.421V325.887
			c0-39.994-32.427-72.421-72.421-72.421H144.84C104.846,253.469,72.419,285.893,72.419,325.887z M289.679,362.099
			c19.997,0,36.209,16.196,36.209,36.209c0,13.259-7.479,24.364-18.106,30.658v59.866c0,10.009-8.097,18.105-18.105,18.105
			c-10.009,0-18.106-8.097-18.106-18.105v-59.866c-10.627-6.294-18.106-17.399-18.106-30.658
			C253.47,378.292,269.682,362.099,289.679,362.099z"/>
	</g>
</g>
<g>
</g>
<g>
</g>
<g>
</g>
<g>
</g>
<g>
</g>
<g>
</g>
<g>
</g>
<g>
</g>
<g>
</g>
<g>
</g>
<g>
</g>
<g>
</g>
<g>
</g>
<g>
</g>
<g>
</g>
</svg>
